<svg width="210" height="48" viewBox="0 0 210 48" fill="none" xmlns="http://www.w3.org/2000/svg">
<path d="M108.54 30.7216C106.478 29.2696 103.547 28.2892 99.3145 27.6283C94.0641 26.7348 91.2174 25.7885 91.2174 23.3374C91.2174 21.4231 93.0178 19.3754 98.0702 19.3754C100.568 19.3754 102.482 20.1604 103.757 21.7086C104.364 22.4408 104.823 23.3467 105.124 24.3954C105.244 24.8112 105.627 25.1028 106.06 25.1028L110.616 25.0997C110.902 25.0997 111.176 24.9756 111.358 24.7584C111.543 24.5381 111.622 24.2527 111.572 23.9704C110.777 19.5119 108.068 17.0609 107.258 16.4155C104.892 14.5322 101.8 13.5797 98.0702 13.5797C94.1804 13.5797 90.8247 14.5198 88.3707 16.3007C85.8759 18.1126 84.5563 20.6133 84.5563 23.536C84.5563 30.4796 91.0038 32.487 97.9728 33.6226C104.571 34.5906 105.46 36.3652 105.46 37.9755C105.46 40.5786 102.629 42.1981 98.0702 42.1981C97.2753 42.1981 96.5212 42.133 95.8268 42.0058C95.808 41.9965 95.7891 41.9872 95.7671 41.9841C92.7602 41.3884 90.7493 39.5361 89.6181 36.3311C89.483 35.9464 89.1154 35.6858 88.7006 35.6858H83.8901C83.6011 35.6858 83.3309 35.813 83.1455 36.0302C82.9601 36.2505 82.8847 36.539 82.935 36.8182C83.268 38.6177 84.1384 40.169 84.1761 40.2342L84.1792 40.2404C86.253 44.6616 90.2371 47.3019 95.7074 47.879C95.7168 47.879 95.7231 47.8821 95.7326 47.879C96.4992 47.9597 97.2847 48 98.0702 48C102.023 48 105.599 46.9979 108.137 45.1797C110.704 43.3399 112.122 40.7368 112.122 37.8452C112.122 34.7488 110.95 32.4187 108.54 30.7216Z" fill="#C209C1"/>
<path d="M44.1933 13.7941H38.3931C38.0537 13.7941 37.7804 14.0641 37.7804 14.3992V47.1905C37.7804 47.5256 38.0537 47.7955 38.3931 47.7955H44.1933C44.5326 47.7955 44.806 47.5256 44.806 47.1905V14.3992C44.8029 14.0641 44.5295 13.7941 44.1933 13.7941Z" fill="#C209C1"/>
<path d="M209.704 38.3449C209.443 38.0223 209.057 37.8392 208.639 37.8392H204.095C203.533 37.8392 203.033 38.1805 202.823 38.711C202.088 40.5447 200.391 41.5127 197.899 41.5127H197.874C194.38 41.5096 192.536 39.6604 192.536 36.1669V20.2506C192.536 20.1172 192.646 20.0117 192.778 20.0117H206.402C207.153 20.0117 207.762 19.4098 207.762 18.6682V15.1375C207.762 14.396 207.153 13.7941 206.402 13.7941H192.778C192.643 13.7941 192.536 13.6855 192.536 13.5552V6.34471C192.536 5.60319 191.926 5.00128 191.175 5.00128H186.858C186.107 5.00128 185.498 5.60319 185.498 6.34471V36.4368C185.498 43.4611 190.333 47.9971 197.814 47.9971L197.884 47.994H197.915C197.937 47.994 197.956 47.9971 197.978 47.9971C204.268 47.9971 208.752 44.8077 209.965 39.4681C210.059 39.0741 209.962 38.6614 209.704 38.3449Z" fill="#C209C1"/>
<path d="M178.114 17.9361C175.349 15.1965 171.667 13.6483 167.739 13.5831C163.749 13.518 159.969 14.9917 157.094 17.7468C154.156 20.5609 152.538 24.3244 152.538 28.3422C152.538 28.3422 152.538 29.6794 152.538 31.6589V47.1967C152.538 47.5318 152.811 47.8017 153.15 47.8017H158.951C159.29 47.8017 159.563 47.5318 159.563 47.1967V28.1468C159.563 26.0587 160.409 24.101 161.945 22.6365C163.482 21.1721 165.508 20.3903 167.651 20.4399C171.767 20.5299 175.377 23.9831 175.377 27.8272L175.374 28.1716C175.371 28.336 175.437 28.4911 175.556 28.609C175.676 28.7269 175.833 28.789 176.003 28.7921C177.316 28.7952 180.405 28.7952 181.775 28.7921C182.12 28.7921 182.403 28.516 182.403 28.1778V28.1406C182.403 24.3026 180.879 20.6788 178.114 17.9361Z" fill="#C209C1"/>
<path d="M79.4501 35.6924H74.3097C74.0929 35.6924 73.8918 35.7855 73.7535 35.9437C73.6938 36.0089 73.6467 36.0802 73.6122 36.164C72.2139 39.7072 69.2353 41.7425 65.4334 41.7425C62.6024 41.7425 60.0448 40.6473 58.2318 38.6616C56.422 36.6791 55.4259 33.896 55.4259 30.8213C55.4259 27.7187 56.422 24.914 58.2318 22.9221C60.0416 20.9302 62.5992 19.835 65.4334 19.835C69.2887 19.835 72.2925 21.8889 73.6781 25.4694C73.7913 25.761 74.0646 25.9472 74.3725 25.9472H79.5129C79.7486 25.9472 79.9654 25.8417 80.1131 25.6524C80.2293 25.5004 80.2765 25.308 80.2639 25.1188C80.2293 24.6348 80.1413 24.129 80.0031 23.6233C79.9811 23.5302 79.9308 23.3751 79.9308 23.3751C79.2207 21.0357 77.6905 19.2269 77.6246 19.1494C77.6214 19.1463 77.6183 19.1431 77.6151 19.14C74.8061 15.5503 70.4827 13.5771 65.4334 13.5771C60.6009 13.5771 56.2366 15.4045 53.1479 18.7243C50.1944 21.8983 48.5668 26.1954 48.5668 30.8182C48.5668 35.407 50.1756 39.6731 53.1008 42.8315C56.2272 46.2102 60.4909 47.9942 65.4365 47.9942C67.5417 47.9942 69.4646 47.6871 71.1802 47.079C75.158 45.5184 78.3032 42.9029 79.9403 38.0101C80.0785 37.5043 80.1696 36.9986 80.201 36.5146C80.2136 36.3254 80.1696 36.133 80.0502 35.981C79.9025 35.7979 79.6857 35.6924 79.4501 35.6924Z" fill="#C209C1"/>
<path d="M41.3302 0C38.4615 0 36.1238 2.30523 36.1238 5.14101C36.1238 7.97679 38.4583 10.282 41.3302 10.282C44.158 10.282 46.4611 7.97679 46.4611 5.14101C46.4611 2.30523 44.158 0 41.3302 0Z" fill="#C209C1"/>
<path d="M17.0457 0H17.0205C12.5776 0 8.37358 1.71884 5.18125 4.84316C4.87961 5.13791 4.32033 5.75532 4.32033 5.75532C4.12866 5.97251 3.94328 6.19279 3.76418 6.41928C3.74219 6.44721 3.69192 6.51236 3.69192 6.51236C1.44849 9.35434 0.150819 12.8231 0 16.4996V47.1875C0 47.3116 0.0377047 47.4295 0.103688 47.5256C0.21366 47.687 0.402183 47.7925 0.612701 47.7925H6.40665C6.746 47.7925 7.01935 47.5225 7.01935 47.1875V31.569C7.01935 31.4604 7.09476 31.4107 7.12618 31.3952C7.19531 31.3611 7.27386 31.3673 7.3367 31.4107C10.1897 33.4088 13.5391 34.4482 17.0174 34.4482C19.6724 34.4482 22.1389 33.8401 24.4169 32.7355C30.1386 29.9618 34.0913 24.0607 34.0913 17.2163C34.0913 7.69755 26.4593 0 17.0457 0ZM17.0205 27.8676C11.3083 27.8676 6.66116 23.0958 6.66116 17.2318C6.66116 11.3679 11.3083 6.59613 17.0205 6.59613C22.7328 6.59613 27.3799 11.3679 27.3799 17.2318C27.3799 23.0958 22.7328 27.8676 17.0205 27.8676Z" fill="#C209C1"/>
<path d="M148.566 30.5855C148.456 21.1878 140.865 13.5771 131.542 13.5771C122.154 13.5771 114.515 21.2995 114.515 30.7903C114.515 38.4072 119.439 44.8823 126.235 47.141C126.263 47.1503 126.295 47.1596 126.323 47.172C126.402 47.1969 126.48 47.2248 126.562 47.2496C128.061 47.7336 129.72 47.9973 131.467 47.9973C135.709 47.9973 139.743 46.4212 141.873 44.0322C141.971 43.9236 142.156 43.9919 142.156 44.1377C142.156 45.3787 142.156 46.7625 142.156 47.02V47.1814C142.156 47.5195 142.436 47.7957 142.778 47.7957H147.947C148.289 47.7957 148.569 47.5195 148.569 47.1814V30.5855H148.566ZM131.542 41.3888C125.764 41.3888 121.063 36.6325 121.063 30.7903C121.063 24.9481 125.764 20.1918 131.542 20.1918C137.32 20.1918 142.021 24.9481 142.021 30.7903C142.021 36.6325 137.32 41.3888 131.542 41.3888Z" fill="#C209C1"/>
</svg>
